<?xml version="1.0" standalone="no"?>
<!DOCTYPE svg PUBLIC "-//W3C//DTD SVG 20010904//EN"
 "http://www.w3.org/TR/2001/REC-SVG-20010904/DTD/svg10.dtd">
<svg version="1.0" xmlns="http://www.w3.org/2000/svg"
 width="16.000000pt" height="16.000000pt" viewBox="0 0 256.000000 256.000000"
 preserveAspectRatio="xMidYMid meet">
<metadata>
Created by potrace 1.16, written by Peter Selinger 2001-2019
</metadata>
<g transform="translate(0.000000,256.000000) scale(0.100000,-0.100000)"
fill="#000000" stroke="none">
<path d="M26 2389 c-37 -29 -37 -89 0 -118 25 -20 39 -21 230 -21 203 0 204 0
209 -22 3 -13 64 -284 135 -603 l129 -580 -22 -17 c-79 -63 -107 -114 -107
-199 0 -132 83 -217 222 -227 l67 -5 -40 -26 c-22 -15 -52 -45 -67 -67 -24
-35 -27 -48 -27 -124 0 -76 3 -89 27 -124 96 -139 290 -139 386 0 24 35 27 48
27 124 0 76 -3 89 -27 124 -15 22 -46 53 -69 68 l-42 28 448 0 448 0 -42 -28
c-23 -15 -54 -46 -69 -68 -24 -35 -27 -48 -27 -124 0 -76 3 -89 27 -124 96
-139 290 -139 386 0 24 35 27 48 27 124 0 76 -3 89 -27 124 -15 22 -46 53 -69
68 l-42 28 45 0 c63 0 98 28 98 80 0 30 -6 43 -26 59 -26 21 -34 21 -728 21
-693 0 -703 0 -724 20 -29 27 -29 73 0 100 21 20 31 20 724 20 l703 0 25 23
c21 19 49 103 176 549 82 290 150 543 150 561 0 22 -8 41 -21 53 -20 18 -54
19 -952 24 l-931 5 -28 124 c-41 184 -17 171 -323 171 -240 0 -254 -1 -279
-21z m2340 -481 c-7 -24 -64 -224 -127 -445 l-114 -403 -617 0 c-579 0 -617 1
-622 18 -2 9 -46 204 -96 432 -50 228 -93 421 -95 428 -4 9 169 12 840 12
l844 0 -13 -42z"/>
</g>
</svg>
